<?xml version="1.0" encoding="UTF-8" standalone="no"?>
<!-- Created with Inkscape (http://www.inkscape.org/) -->

<svg
   xmlns:dc="http://purl.org/dc/elements/1.1/"
   xmlns:cc="http://creativecommons.org/ns#"
   xmlns:rdf="http://www.w3.org/1999/02/22-rdf-syntax-ns#"
   xmlns:svg="http://www.w3.org/2000/svg"
   xmlns="http://www.w3.org/2000/svg"
   xmlns:sodipodi="http://sodipodi.sourceforge.net/DTD/sodipodi-0.dtd"
   xmlns:inkscape="http://www.inkscape.org/namespaces/inkscape"
   width="72mm"
   height="72mm"
   viewBox="0 0 255.11811 255.11812"
   id="svg2"
   version="1.1"
   inkscape:version="0.91 r13725"
   sodipodi:docname="brick.svg"
   inkscape:export-filename="E:\Programming\github\rebrickable\app\images\touch\apple-touch-icon.png"
   inkscape:export-xdpi="53.619999"
   inkscape:export-ydpi="53.619999">
  <defs
     id="defs4" />
  <sodipodi:namedview
     id="base"
     pagecolor="#ffffff"
     bordercolor="#666666"
     borderopacity="1.0"
     inkscape:pageopacity="0.0"
     inkscape:pageshadow="2"
     inkscape:zoom="1.979899"
     inkscape:cx="47.831516"
     inkscape:cy="113.83415"
     inkscape:document-units="px"
     inkscape:current-layer="layer1"
     showgrid="false"
     fit-margin-top="0"
     fit-margin-left="0"
     fit-margin-right="0"
     fit-margin-bottom="0"
     inkscape:window-width="1920"
     inkscape:window-height="1018"
     inkscape:window-x="-4"
     inkscape:window-y="-4"
     inkscape:window-maximized="1" />
  <metadata
     id="metadata7">
    <rdf:RDF>
      <cc:Work
         rdf:about="">
        <dc:format>image/svg+xml</dc:format>
        <dc:type
           rdf:resource="http://purl.org/dc/dcmitype/StillImage" />
        <dc:title></dc:title>
      </cc:Work>
    </rdf:RDF>
  </metadata>
  <g
     inkscape:label="Layer 1"
     inkscape:groupmode="layer"
     id="layer1"
     transform="translate(-150.43457,-98.370472)">
    <g
       id="g4147"
       transform="translate(-132.93584,-325.91097)">
      <path
         style="fill:#4e95ec"
         d="M 361.81678,639.35793 C 346.82203,626.70555 324.99109,608.2625 313.30359,598.37336 l -21.25,-17.98023 -0.32928,-41.46248 -0.32929,-41.46249 2.48314,-1.32893 c 1.36573,-0.73092 8.76633,-3.83834 16.44578,-6.90538 l 13.96263,-5.57643 1.77861,-2.53933 1.77861,-2.53932 5.07691,-2.59004 5.0769,-2.59005 7.02799,-0.62383 7.028,-0.62383 20.625,-8.23527 20.625,-8.23528 5.28871,-4.60826 5.2887,-4.60826 7.8363,-1.45955 c 4.30996,-0.80276 10.0642,-1.96038 12.7872,-2.5725 l 4.95092,-1.11295 18.55318,14.58414 c 10.20426,8.02128 24.62868,19.3654 32.05426,25.20915 7.42558,5.84375 21.78474,17.09375 31.90924,25 l 18.40818,14.375 -0.83488,38.19869 -0.83487,38.19867 -0.83495,4.08244 -0.83494,4.08242 -66.86853,28.65221 c -36.77768,15.75871 -67.81883,28.65408 -68.98033,28.65638 l -2.11181,0.004 -27.26319,-23.00431 z m 39.92431,-94.07354 -1.5625,-0.63048 -1.5625,0.63048 -1.5625,0.63048 3.125,0 3.125,0 -1.5625,-0.63048 z m 70.625,-30.03381 c -1.20313,-0.31441 -3.17188,-0.31441 -4.375,0 l -2.1875,0.57166 4.375,0 4.375,0 -2.1875,-0.57166 z M 351.13066,502.75339 c -1.1951,-0.31287 -3.44511,-0.32422 -5,-0.0252 l -2.82707,0.54362 5,0.0252 5,0.0252 -2.17293,-0.56884 z m 69.98543,-28.75281 c -1.20313,-0.31441 -3.17188,-0.31441 -4.375,0 l -2.1875,0.57166 4.375,0 4.375,0 -2.1875,-0.57166 z"
         id="path4161"
         inkscape:connector-curvature="0" />
      <path
         style="fill:#3c83e0"
         d="m 340.47457,620.81918 -49.07902,-41.49015 0.32902,-41.1783 0.32902,-41.17829 15.92997,-6.42759 15.92996,-6.42759 4.07004,-3.88262 4.07003,-3.88262 5.98118,-1.99489 5.98119,-1.99489 4.64381,-0.0135 4.64382,-0.0135 21.05638,-8.62811 21.05637,-8.62811 1.83201,-2.61555 c 1.0076,-1.43855 3.46167,-3.45829 5.4535,-4.4883 l 3.62149,-1.87275 11.85091,-2.00219 11.85092,-2.0022 7.26421,5.66021 c 9.64232,7.51322 48.661,38.3535 73.20171,57.85847 l 19.6875,15.64764 -0.0384,3.36142 c -0.0211,1.84879 -0.55701,20.18978 -1.19096,40.75775 l -1.15264,37.39633 -1.62152,1.48854 c -1.65419,1.5185 -133.86291,58.11551 -135.64343,58.06736 -0.53796,-0.0145 -23.06367,-18.69702 -50.05713,-41.51661 z m 50.61743,19.94285 -0.47664,-5.27479 0.007,11.25 0.007,11.25 0.46972,-5.97521 c 0.25834,-3.28638 0.25523,-8.34888 -0.007,-11.25 z m 1.58659,-60.89979 c 0,-0.6875 -0.24805,-1.25 -0.55123,-1.25 -0.30318,0 -0.89887,0.5625 -1.32377,1.25 l -0.77254,1.25 1.32377,0 1.32377,0 0,-1.25 z m 15.625,-21.25 2.5,-1.07429 -2.8125,-0.0879 -2.8125,-0.0878 0,-5.54077 0,-5.54076 2.8125,-1.01828 2.8125,-1.01828 -10.625,-0.66988 c -5.84375,-0.36844 -10.83832,-0.53168 -11.09903,-0.36276 -0.26072,0.16892 0.86618,0.91777 2.50422,1.66411 l 2.97825,1.35699 -0.44259,5.56481 -0.44258,5.56482 -2.06164,0.1246 -2.06163,0.1246 3.125,1.0008 c 1.71875,0.55044 5.375,1.01734 8.125,1.03754 l 5,0.0367 2.5,-1.07429 z m -15.625,-30 c 0,-0.6875 -0.24805,-1.25 -0.55123,-1.25 -0.30318,0 -0.89887,0.5625 -1.32377,1.25 l -0.77254,1.25 1.32377,0 1.32377,0 0,-1.25 z m 84.69837,-0.48019 -1.73018,-1.73019 0.53887,-4.61582 0.53888,-4.61582 1.72702,-0.66273 c 0.94988,-0.3645 1.72381,-1.02442 1.71989,-1.46649 l -0.007,-0.80376 -10.30534,-0.28284 -10.30535,-0.28284 2.8125,1.41136 2.8125,1.41136 0,5.43398 0,5.43398 -2.1875,0.0191 -2.1875,0.0191 1.875,1.21172 1.875,1.21172 7.27679,0.0191 7.27678,0.0192 -1.7302,-1.73019 z m -120.32337,-12.01981 0.77254,-1.25 -1.94877,0 -1.94877,0 0,-5.03923 0,-5.03923 1.875,-0.71951 c 1.03125,-0.39573 1.86939,-1.0812 1.86254,-1.52327 l -0.0125,-0.80376 -9.67505,-0.24851 -9.67504,-0.24851 2.10313,1.57462 2.10313,1.57462 0.27878,3.04889 c 0.15332,1.67689 0.19129,4.03326 0.0844,5.23639 l -0.19441,2.1875 -2.1875,0.0191 -2.1875,0.0191 1.875,1.21172 1.875,1.21172 7.11373,0.0191 7.11373,0.0192 0.77254,-1.25 z m 70,-28.75 0.77254,-1.25 -1.94877,0 -1.94877,0 0,-5.11703 0,-5.11702 2.5,-0.65376 c 1.375,-0.35957 2.49762,-1.01004 2.49472,-1.44548 l -0.005,-0.79171 -10.30723,-0.231 -10.30722,-0.23099 2.8125,1.35951 2.8125,1.35952 0,5.43398 0,5.43398 -2.1875,0.0191 -2.1875,0.0191 1.875,1.21172 1.875,1.21172 6.48872,0.0191 6.48874,0.0191 0.77254,-1.25 z"
         id="path4159"
         inkscape:connector-curvature="0" />
      <path
         style="fill:#2f73cb"
         d="m 392.30276,620.48373 0.77704,-41.87149 -1.5054,0 -1.5054,0 0.2029,1.5625 c 0.1116,0.85937 0.13625,19.42187 0.0548,41.25 l -0.14811,39.6875 -0.9375,-0.0126 c -0.8944,-0.0125 -81.40556,-67.4978 -92.5,-77.53507 l -5.3125,-4.80621 0.0191,-39.76055 0.0191,-39.76054 0.91836,-1.39487 0.91836,-1.39488 15,-5.97663 15,-5.97663 4.375,-4.0732 4.375,-4.0732 5.98118,-1.9928 5.98119,-1.99279 4.64381,-0.0135 4.64382,-0.0135 21.05638,-8.62811 21.05637,-8.62811 1.83201,-2.61555 c 1.0076,-1.43855 3.46167,-3.45829 5.4535,-4.4883 l 3.62149,-1.87275 11.85091,-2.00219 11.85092,-2.0022 7.26421,5.66021 c 9.64253,7.51339 48.66132,38.35376 73.20243,57.85905 l 19.68823,15.64822 -0.66391,25.86084 c -0.36516,14.22348 -0.98552,32.76677 -1.37857,41.20735 l -0.71462,15.3465 -3.30968,1.70045 c -2.50638,1.28772 -103.40514,44.67069 -128.57361,55.28217 l -4.01394,1.69236 0.77705,-41.87149 z m 17.87583,-61.74114 3.125,-0.87045 -2.29817,-0.88318 -2.29816,-0.88319 0.72194,-5.16143 0.72193,-5.16142 1.89523,-1.39784 1.89523,-1.39784 -13.74603,-0.11035 -13.74603,-0.11036 2.22123,1.55581 2.22122,1.5558 -0.48799,5.11705 -0.48799,5.11705 -1.4312,0.10152 -1.43121,0.10153 3.75,1.71709 3.75,1.7171 6.25,-0.0682 c 3.4375,-0.0375 7.65625,-0.45993 9.375,-0.93868 z m -17.5,-30.13035 c 0,-0.6875 -0.5625,-1.25 -1.25,-1.25 -0.6875,0 -1.25,0.5625 -1.25,1.25 0,0.6875 0.5625,1.25 1.25,1.25 0.6875,0 1.25,-0.5625 1.25,-1.25 z m 89.375,0 2.5,-1.07429 -2.1875,-0.0879 -2.1875,-0.0879 0,-5.1747 0,-5.17469 2.1875,-1.66055 2.1875,-1.66055 -10.625,-0.0568 c -5.84375,-0.0312 -12.03125,-0.37214 -13.75,-0.75753 l -3.125,-0.7007 2.1875,1.79308 2.1875,1.79307 0,5.1747 0,5.1747 -2.1875,0.0443 -2.1875,0.0443 3.125,1.78641 3.125,1.78641 8.125,-0.0436 8.125,-0.0436 2.5,-1.07429 z m -122.5,-12.5 0.77254,-1.25 -1.37441,0 -1.37441,0 0.2942,-5.3125 0.2942,-5.3125 1.94394,-1.52275 1.94394,-1.52274 -10.625,-0.0568 c -5.84375,-0.0312 -12.03125,-0.37215 -13.75,-0.75753 l -3.125,-0.70071 2.35178,1.9132 2.35178,1.91321 -0.60179,6.2629 -0.60178,6.2629 1.375,0.56799 c 0.75626,0.31239 5.41994,0.61239 10.36374,0.66667 l 8.98873,0.0987 0.77254,-1.25 z m 105.28646,-17.00521 -0.75521,-0.75521 -1.64063,0.65653 -1.64062,0.65652 2.39584,0.0987 2.39582,0.0987 -0.7552,-0.75521 z m -7.16146,-4.24479 0,-1.25 -1.32378,0 -1.32376,0 0.77254,1.25 c 0.4249,0.6875 1.0206,1.25 1.32377,1.25 0.30318,0 0.55123,-0.5625 0.55123,-1.25 z m -27.5,-7.5 1.875,-1.21172 -1.90804,-0.0191 -1.90802,-0.0191 0.45876,-5.3125 0.45875,-5.3125 2.00069,-1.5625 2.00068,-1.5625 -10.55141,-0.0171 c -5.80327,-0.009 -11.95766,-0.3324 -13.67641,-0.71778 l -3.125,-0.70071 2.1875,1.79308 2.1875,1.79308 0,5.17469 0,5.1747 -2.1875,0.10152 -2.1875,0.10153 3.75,1.7171 3.75,1.71709 7.5,0.0372 7.5,0.0372 1.875,-1.21172 z m -87.83854,-0.75521 -0.75521,-0.75521 -1.64063,0.65653 -1.64062,0.65652 2.39583,0.0987 2.39584,0.0987 -0.75521,-0.75521 z m -5.91146,-3.54602 c 0,-0.30318 -0.5625,-0.89887 -1.25,-1.32377 l -1.25,-0.77254 0,1.32377 0,1.32377 1.25,0 c 0.6875,0 1.25,-0.24805 1.25,-0.55123 z m 70.91146,-28.95398 -0.75521,-0.75521 -1.64063,0.65653 -1.64062,0.65652 2.39583,0.0987 2.39584,0.0987 -0.75521,-0.75521 z"
         id="path4157"
         inkscape:connector-curvature="0" />
      <path
         style="fill:#2461b1"
         d="m 380.76373,654.6058 c -4.10307,-3.5078 -25.17889,-21.27659 -46.83514,-39.4862 -21.65625,-18.20961 -40.07813,-33.98066 -40.9375,-35.04679 l -1.5625,-1.9384 0,-39.73227 0,-39.73227 2.8125,-1.78704 c 1.54687,-0.98288 8.71875,-4.19156 15.9375,-7.13041 l 13.125,-5.34336 4.61302,-4.07786 4.61301,-4.07787 6.55136,-1.94555 c 3.60325,-1.07005 8.34546,-1.94554 10.53824,-1.94554 l 3.98687,0 20.44419,-8.36627 20.44418,-8.36627 3.86906,-3.86905 3.86905,-3.86906 4.9336,-1.47814 c 2.71348,-0.81298 9.03189,-2.05939 14.04092,-2.7698 l 9.10732,-1.29165 6.02833,4.69262 c 5.6239,4.37781 23.62784,18.63078 73.66601,58.31835 l 20.45516,16.22393 -0.76491,10.70017 c -0.42071,5.88509 -1.10164,24.20017 -1.51317,40.70017 l -0.74825,30 -0.817,0.86589 c -0.83364,0.88355 -132.04728,57.25911 -133.27007,57.25911 l -0.67192,0 0.14611,-32.8125 c 0.0804,-18.04688 0.50223,-36.35495 0.9375,-40.68461 l 0.79139,-7.87211 46.25,-19.35907 c 25.4375,-10.64749 53.5625,-22.39114 62.5,-26.097 25.15043,-10.42843 25.93401,-10.78237 25.29211,-11.42427 -0.4845,-0.4845 -65.96197,26.45207 -124.62916,51.27078 -5.82288,2.46333 -11.30726,4.47878 -12.1875,4.47878 l -1.60045,0 -0.0289,25.3125 c -0.0243,21.29615 -1.08402,55.95135 -1.73716,56.81069 -0.10375,0.1365 -3.5457,-2.62183 -7.64878,-6.12963 z m 31.17864,-96.11486 4.88878,-1.35736 -1.26945,-0.82317 -1.26945,-0.82317 -0.11276,-4.375 -0.11277,-4.375 1.84894,-2.83415 1.84893,-2.83415 -5.3555,0.95915 c -2.94552,0.52753 -8.7305,0.872 -12.8555,0.76548 l -7.5,-0.19366 -5.5605,-2.02589 -5.56051,-2.02589 2.74801,2.92512 2.748,2.92512 0,5.23193 0,5.23194 -1.45833,0 -1.45834,0 0.92305,0.9375 c 0.50767,0.51562 2.7108,1.59782 4.89583,2.4049 l 3.97279,1.4674 6.875,0.0881 6.875,0.0881 4.88878,-1.35736 z m -7.10232,-20.63391 -0.75521,-0.75521 -1.64063,0.65653 -1.64062,0.65652 2.39583,0.0987 2.39584,0.0987 -0.75521,-0.75521 z m 10.96354,-2.33479 c 6.71281,-2.21237 4.07055,-2.2988 -3.75,-0.12266 l -6.25,1.73912 2.5,0.0157 c 1.375,0.009 4.75,-0.72583 7.5,-1.63216 z m -15.3125,-2.73785 -1.5625,-0.63048 -1.5625,0.63048 -1.5625,0.63048 3.125,0 3.125,0 -1.5625,-0.63048 z m 10.11721,-1.77024 c 2.6426,-0.73378 4.59185,-1.54702 4.33168,-1.80719 -0.26017,-0.26016 -3.26604,0.29304 -6.67971,1.22935 l -6.20668,1.70239 1.875,0.1048 c 1.03125,0.0576 4.03712,-0.49557 6.67971,-1.22935 z m 75.19529,-3.08379 3.75,-1.61419 -2.1875,-0.10196 -2.1875,-0.10197 0,-5.21407 0,-5.21408 1.96874,-2.17543 1.96874,-2.17542 -4.78124,1.10968 c -2.62969,0.61032 -7.92622,1.1231 -11.77008,1.1395 l -6.98884,0.0298 -6.07783,-1.82916 c -3.34282,-1.00604 -6.24815,-1.65884 -6.45633,-1.45067 -0.20817,0.20817 0.74996,1.39972 2.12918,2.6479 l 2.50766,2.2694 0,4.11915 0,4.11916 -2.03553,1.13913 -2.03551,1.13913 1.67838,1.0373 c 0.92311,0.57051 4.51097,1.67628 7.97302,2.45726 l 6.29464,1.41997 6.25,-0.56814 6.25,-0.56813 3.75,-1.61418 z m -90,0.68188 2.5,-1.07429 -4.0625,-0.0879 -4.0625,-0.0879 0,1.25 0,1.25 1.5625,-0.0879 c 0.85937,-0.0483 2.6875,-0.57129 4.0625,-1.16215 z m 6.53646,-2.00521 -0.75521,-0.75521 -1.64063,0.65653 -1.64062,0.65652 2.39583,0.0987 2.39584,0.0987 -0.75521,-0.75521 z m -14.34896,-2.57264 -1.5625,-0.63048 -1.5625,0.63048 -1.5625,0.63048 3.125,0 3.125,0 -1.5625,-0.63048 z m 16.3088,-0.88418 0.62836,0.62836 0.70203,-1.13591 0.70203,-1.13591 -5.51983,-0.0834 -5.51983,-0.0835 1.50535,1.61148 1.50535,1.61149 2.68409,-1.02049 2.68409,-1.02049 0.62836,0.62836 z m -10.70984,-0.29318 -0.75521,-0.75521 -1.64063,0.65653 -1.64062,0.65652 2.39583,0.0987 2.39584,0.0987 -0.75521,-0.75521 z m 0.33854,-3.56645 6.875,-1.71573 -3.125,-0.0102 c -3.03036,-0.01 -14.38642,3.20668 -11.875,3.3636 0.6875,0.043 4.34375,-0.69397 8.125,-1.63763 z m -30.625,-3.7582 3.75,-1.71709 -2.1875,-0.10153 -2.1875,-0.10152 0,-5.21407 0,-5.21408 1.96873,-2.17543 1.96874,-2.17542 -4.78124,1.10968 c -2.62967,0.61032 -7.92621,1.1231 -11.77007,1.1395 l -6.98883,0.0298 -6.07784,-1.82916 c -6.72087,-2.02269 -8.45443,-1.71306 -4.44121,0.79323 l 2.62172,1.6373 0,5.32431 0,5.32432 -2.1875,0.10119 -2.1875,0.10118 5,2.36604 5,2.36604 9.375,-0.0236 9.375,-0.0236 3.75,-1.7171 z m 115.28646,-7.67535 -0.75521,-0.75521 -1.64063,0.65653 -1.64062,0.65652 2.39584,0.0987 2.39582,0.0987 -0.7552,-0.75521 z m 5,-1.25 -0.75521,-0.75521 -1.64063,0.65653 -1.64062,0.65652 2.39584,0.0987 2.39582,0.0987 -0.7552,-0.75521 z m 7.10194,-1.56422 0.66095,-1.06943 -3.08718,0.59015 c -1.69795,0.32458 -3.08717,0.80583 -3.08717,1.06943 0,0.96719 4.8733,0.44555 5.5134,-0.59015 z m -20.85194,-0.93578 -0.75521,-0.75521 -1.64063,0.65653 -1.64062,0.65652 2.39584,0.0987 2.39582,0.0987 -0.7552,-0.75521 z m 5,-1.25 -0.75521,-0.75521 -1.64063,0.65653 -1.64062,0.65652 2.39584,0.0987 2.39582,0.0987 -0.7552,-0.75521 z m 5,-1.25 -0.75521,-0.75521 -1.64063,0.65653 -1.64062,0.65652 2.39584,0.0987 2.39582,0.0987 -0.7552,-0.75521 z m 5,-1.25 -0.75521,-0.75521 -1.64063,0.65653 -1.64062,0.65652 2.39584,0.0987 2.39582,0.0987 -0.7552,-0.75521 z m -19.32517,-1.31471 c -0.84629,-0.34241 -2.53379,-0.36325 -3.75,-0.0463 l -2.21129,0.57623 3.75,0.0463 3.75,0.0463 -1.53871,-0.62256 z m 5.57517,-1.18529 -0.75521,-0.75521 -1.64063,0.65653 -1.64062,0.65652 2.39584,0.0987 2.39582,0.0987 -0.7552,-0.75521 z m 5,-1.25 -0.75521,-0.75521 -1.64063,0.65653 -1.64062,0.65652 2.39584,0.0987 2.39582,0.0987 -0.7552,-0.75521 z m -114.90249,-1.91474 c 3.22632,-0.78097 6.36789,-1.87346 6.98128,-2.42775 l 1.11525,-1.00781 -7.36525,1.86424 c -4.05089,1.02532 -7.92775,2.0734 -8.61525,2.32906 l -1.25,0.46484 1.63397,0.0987 c 0.89869,0.0543 4.27369,-0.5403 7.5,-1.32127 z m 99.61603,0.16995 2.5,-1.07429 -4.0625,-0.0879 -4.0625,-0.0879 0,1.25 0,1.25 1.5625,-0.0879 c 0.85937,-0.0483 2.6875,-0.57129 4.0625,-1.16215 z m 10.20834,-1.90032 0,-1.79273 -3.22918,0.77237 c -4.31389,1.03182 -4.88317,1.67068 -1.48872,1.67068 l 2.7821,0 -0.76369,1.23568 -0.7637,1.23568 1.7316,-0.66447 1.73159,-0.66447 0,-1.79274 z m 5.07812,-0.10489 -0.75521,-0.7552 -1.64063,0.65652 -1.64062,0.65652 2.39584,0.0987 2.39582,0.0987 -0.7552,-0.75521 z m -122.78646,-2.28213 6.25,-1.73912 -2.5,-0.0157 c -2.66106,-0.0167 -13.36539,3.20598 -11.25,3.38699 0.6875,0.0588 4.0625,-0.67565 7.5,-1.63217 z m 109.03646,-0.21787 -0.75521,-0.75521 -1.64063,0.65653 -1.64062,0.65652 2.39584,0.0987 2.39582,0.0987 -0.7552,-0.75521 z m 8.56714,-1.57715 -0.66894,-1.08237 -3.15482,0.60309 c -4.28932,0.81995 -3.9716,1.56164 0.66893,1.56164 l 3.82377,0 -0.66894,-1.08236 z m -121.22612,-3.58182 c -0.2303,-0.2303 -2.7336,-0.0486 -5.56288,0.40385 l -5.14416,0.82258 0.57347,0.9279 0.57348,0.9279 4.98941,-1.33175 c 2.74418,-0.73246 4.80099,-1.52018 4.57068,-1.75048 z m 13.90898,2.65897 -0.75521,-0.75521 -1.64063,0.65653 -1.64062,0.65652 2.39583,0.0987 2.39584,0.0987 -0.75521,-0.75521 z m 69.71354,-1.07465 3.75,-1.71709 -1.5625,-0.10153 -1.5625,-0.10152 0,-5.21407 0,-5.21408 2.1875,-2.49788 2.1875,-2.49788 -2.5,0.92735 c -1.375,0.51005 -6.25276,1.24581 -10.83948,1.63504 l -8.33946,0.70768 -5.56209,-1.40056 c -3.05915,-0.7703 -6.61889,-1.78731 -7.91053,-2.26003 l -2.34844,-0.85948 2.1875,2.49788 2.1875,2.49788 0,5.10991 0,5.10991 -1.5625,0.55851 -1.5625,0.55851 4.375,1.94369 4.375,1.94368 9.375,0.0456 9.375,0.0456 3.75,-1.7171 z m -78.46354,-2.67535 -0.75521,-0.75521 -1.64063,0.65653 -1.64062,0.65652 2.39583,0.0987 2.39584,0.0987 -0.75521,-0.75521 z m -18.41146,-1.74479 c 0,-0.6875 -0.5625,-1.25 -1.25,-1.25 -0.6875,0 -1.25,0.5625 -1.25,1.25 0,0.6875 0.5625,1.25 1.25,1.25 0.6875,0 1.25,-0.5625 1.25,-1.25 z m 12.98345,-1.79314 -0.6087,-1.58624 -3.37488,0.6901 -3.37487,0.6901 2.1875,0.46624 2.1875,0.46625 0,1.11911 0,1.11912 1.79607,-0.68922 1.79607,-0.68922 -0.60869,-1.58624 z m -8.32199,1.03793 -0.75521,-0.75521 -1.64063,0.65653 -1.64062,0.65652 2.39583,0.0987 2.39584,0.0987 -0.75521,-0.75521 z m 13.75,-1.25 -0.75521,-0.75521 -1.64063,0.65653 -1.64062,0.65652 2.39583,0.0987 2.39584,0.0987 -0.75521,-0.75521 z m -6.01563,-3.76259 c 1.39677,-1.29316 -1.0635,-1.17222 -6.14583,0.30211 l -5.625,1.63176 5.625,-0.72584 c 3.09375,-0.39921 5.85937,-0.94282 6.14583,-1.20803 z m 83.22917,-11.18276 c 0.6875,-0.30427 -1,-0.22734 -3.75,0.17094 -2.75,0.39829 -5.51465,1.22316 -6.14366,1.83306 l -1.14368,1.10889 4.89368,-1.27984 c 2.69151,-0.70391 5.45616,-1.52879 6.14366,-1.83305 z m 6.17795,-1.68287 0.7005,-1.13342 -2.50173,0.65421 c -2.91873,0.76327 -3.28768,1.61264 -0.7005,1.61264 0.99068,0 2.11646,-0.51004 2.50173,-1.13343 z m -19.64149,-0.87178 -0.75521,-0.75521 -1.64063,0.65653 -1.64062,0.65652 2.39584,0.0987 2.39582,0.0987 -0.7552,-0.75521 z m 10.96354,-2.33479 c 6.71281,-2.21237 4.07055,-2.2988 -3.75,-0.12266 l -6.25,1.73912 2.5,0.0157 c 1.375,0.009 4.75,-0.72584 7.5,-1.63216 z m -13.125,-2.58045 5.625,-1.88249 -4.21875,0.65147 c -2.32031,0.35831 -5.30664,0.65147 -6.63627,0.65147 l -2.41752,0 0.77254,1.25 c 0.93276,1.50924 0.12724,1.5878 6.875,-0.67045 z m -9.08854,-3.83476 -0.75521,-0.75521 -1.64063,0.65653 -1.64062,0.65652 2.39583,0.0987 2.39584,0.0987 -0.75521,-0.75521 z m 12.6317,-1.89907 c -0.91749,-0.58159 -2.79316,-1.0008 -4.16816,-0.93158 l -2.5,0.12586 2.2028,0.5746 2.20281,0.5746 -0.64204,1.03883 -0.64202,1.03882 2.60739,-0.68185 2.6074,-0.68184 -1.66818,-1.05744 z m -7.6317,0.64907 -0.75521,-0.75521 -1.64063,0.65653 -1.64062,0.65652 2.39583,0.0987 2.39584,0.0987 -0.75521,-0.75521 z m 12.83854,-0.49479 c 0,-0.6875 -0.5625,-1.25 -1.25,-1.25 -0.6875,0 -1.25,0.5625 -1.25,1.25 0,0.6875 0.5625,1.25 1.25,1.25 0.6875,0 1.25,-0.5625 1.25,-1.25 z m -8.125,-3.75 3.75,-0.95421 -3.125,-0.0233 c -1.71875,-0.0128 -4.53125,0.42706 -6.25,0.9775 l -3.125,1.0008 2.5,-0.0233 c 1.375,-0.0128 4.1875,-0.45269 6.25,-0.9775 z"
         id="path4155"
         inkscape:connector-curvature="0" />
      <path
         style="fill:#1b4f92"
         d="m 383.23828,656.3881 c -3.97738,-3.54532 -8.96403,-7.77511 -59.74936,-50.68076 l -30.81033,-26.02989 0,-40.14147 0,-40.14147 3.4375,3.13643 c 3.69186,3.36851 15.15843,12.88672 62.1875,51.62085 16.5,13.58974 30.29418,25.35591 30.65373,26.14704 l 0.65373,1.43841 -0.43658,39.0625 -0.43657,39.0625 -0.84216,-0.0366 c -0.46318,-0.0201 -2.55904,-1.56703 -4.65746,-3.4375 z m -15.67783,-97.53865 c -12.09623,-10.09922 -33.60517,-27.92471 -47.79766,-39.61221 -14.19248,-11.6875 -25.81119,-21.57997 -25.81936,-21.98327 -0.008,-0.4033 6.59453,-3.40688 14.67266,-6.67462 l 14.6875,-5.94136 3.75,-3.57452 3.75,-3.57453 4.64735,-1.93835 4.64735,-1.93835 5.23444,0 5.23443,0 21.96338,-8.87248 21.96338,-8.87247 2.67059,-2.88161 c 1.46883,-1.58489 4.53735,-3.84695 6.81894,-5.02681 l 4.14836,-2.1452 7.58589,-0.96896 c 4.17224,-0.53293 8.99833,-1.33674 10.72465,-1.78625 l 3.13876,-0.81728 7.04117,5.37303 c 9.94928,7.59218 88.83296,69.80327 90.84976,71.64806 l 1.66845,1.52615 -13.54345,5.68159 c -7.4489,3.12487 -37.8615,15.85398 -67.58358,28.28691 l -54.04011,22.60532 -2.20988,-0.0753 -2.20988,-0.0753 -21.99314,-18.3622 z m 46.49411,-0.4014 c 2.33697,-0.7778 5.07269,-2.18405 6.07939,-3.125 l 1.83035,-1.71081 -1.51785,0 -1.51786,0 0,-5.21407 0,-5.21408 2.06874,-2.28592 2.06873,-2.28593 -1.28658,0 c -0.70762,0 -3.67802,0.84375 -6.60089,1.875 l -5.31432,1.875 -8.90534,-0.0122 -8.90534,-0.0122 -6.68662,-3.11279 c -8.19845,-3.81658 -8.20724,-3.81671 -5.76104,-0.0833 l 1.98497,3.02945 -0.39366,4.78305 -0.39365,4.78305 -1.875,-0.3266 -1.875,-0.32661 3.60343,3.00587 c 1.98188,1.65322 5.35688,3.5709 7.5,4.26149 l 3.89657,1.25562 8.87597,0.12762 8.87597,0.12761 4.24903,-1.41419 z m 1.43653,-22.3836 4.6875,-1.31972 0,-1.32498 0,-1.32498 -2.1875,0.90135 c -1.20313,0.49574 -5.28125,1.73261 -9.0625,2.7486 -3.78125,1.01599 -7.15625,2.15509 -7.5,2.53134 l -0.625,0.68408 5,-0.78799 c 2.75,-0.43339 7.10937,-1.38186 9.6875,-2.1077 z m -1,-6.33733 1.1875,-1.11488 -1.1875,0.0525 c -0.65313,0.0289 -5.28538,1.04036 -10.2939,2.24776 l -9.10641,2.19528 0.73781,0.7378 0.7378,0.73781 8.3686,-1.87069 c 4.60273,-1.02888 8.90297,-2.37239 9.5561,-2.98557 z m 66.8616,0.0346 6.29716,-1.3505 2.82687,-2.49474 c 1.55478,-1.3721 2.12374,-2.13743 1.26437,-1.70073 l -1.5625,0.79401 0,-6.25 0,-6.25 1.25,-0.77255 c 0.6875,-0.4249 1.25,-1.27689 1.25,-1.89332 l 0,-1.12078 -5.3125,2.00205 -5.3125,2.00205 -9.375,0.0858 -9.375,0.0858 -7.32814,-3.38852 -7.32814,-3.38852 2.01564,3.07626 2.01564,3.07625 0,4.95232 0,4.95233 -2.1875,0.46703 -2.1875,0.46703 4.375,2.43712 c 8.91507,4.9662 18.55412,6.38198 28.6741,4.21163 z m -80.8339,-1.93937 4.71521,-0.78852 0.78374,-1.26811 0.78373,-1.26811 -3.3123,0.83133 c -1.82176,0.45723 -5.8302,1.17645 -8.90764,1.59826 l -5.59535,0.76693 0.73728,1.19294 0.73728,1.19294 2.67142,-0.73457 c 1.46929,-0.40401 4.79327,-1.0894 7.38663,-1.52309 z m 5.7508,-4.88447 c 2.05449,-2.05449 -4.41524,-2.54855 -15.1535,-1.1572 l -7.1875,0.93129 0,1.0255 0,1.02551 10.88267,-0.62472 c 5.98546,-0.3436 11.14171,-0.88377 11.45833,-1.20039 z m -11.14899,-3.52256 6.81701,-1.59097 -1.29255,-0.79884 -1.29255,-0.79884 -6.59126,1.73874 c -3.6252,0.95631 -6.90808,2.05555 -7.2953,2.44277 l -0.70403,0.70403 1.77084,-0.053 c 0.97395,-0.0291 4.83848,-0.7689 8.58784,-1.64394 z m -28.8881,-4.73585 5.82109,-2.69674 -2.1875,-0.52692 -2.1875,-0.52691 0,-5.12242 0,-5.12242 2.1875,-2.49788 2.1875,-2.49788 -2.5,0.93072 c -1.375,0.5119 -5.8191,1.78651 -9.87577,2.83247 l -7.37576,1.90173 -6.44475,-0.80521 -6.44474,-0.80522 -6.64431,-3.07836 -6.64432,-3.07835 2.02733,3.09408 2.02732,3.09409 0,4.93981 0,4.93982 -1.53697,0.51232 -1.53696,0.51232 3.53524,2.31638 c 1.94439,1.27401 6.15165,3.05448 9.34947,3.95659 l 5.81422,1.6402 7.30391,-0.60774 7.30392,-0.60775 5.82108,-2.69673 z m 118.00859,-7.42721 7.1875,-1.53788 0,-1.18482 0,-1.18482 -1.81984,0.69834 c -1.00091,0.38408 -5.21966,1.40056 -9.375,2.25883 l -7.55516,1.56049 0,1.08414 0,1.08414 2.1875,-0.62027 c 1.20312,-0.34115 5.42187,-1.31231 9.375,-2.15815 z m -6.48636,-4.36761 8.69463,-1.97755 -0.59011,-0.95483 -0.59012,-0.95483 -8.91052,2.2143 c -4.90078,1.21786 -9.23366,2.53744 -9.62861,2.93239 l -0.71807,0.71808 1.52407,0 c 0.83824,0 5.43666,-0.8899 10.21873,-1.97756 z m -6.01643,-4.45564 5.94029,-1.27396 0,-0.93892 0,-0.93893 -8.65038,1.94807 -8.65036,1.94807 0.6518,1.05465 0.65181,1.05465 2.05828,-0.78983 c 1.13205,-0.43441 4.7314,-1.36312 7.99856,-2.0638 z m -109.37221,-3.73827 6.5625,-1.47636 0,-1.18482 0,-1.18482 -1.81984,0.69834 c -1.00092,0.38408 -5.21967,1.40056 -9.375,2.25883 l -7.55516,1.56049 0,1.14569 0,1.1457 2.8125,-0.74335 c 1.54687,-0.40884 5.76562,-1.40771 9.375,-2.2197 z m 103.125,-0.63109 2.1875,-0.61591 0,1.20132 0,1.20132 5.3125,-1.34929 5.3125,-1.34929 -4.1055,-1.06468 -4.1055,-1.06468 -4.6445,1.28992 c -2.55448,0.70945 -6.22457,1.29304 -8.15578,1.29688 l -3.51126,0.007 0.81776,1.32318 0.81778,1.32318 3.9435,-0.7915 c 2.16892,-0.43533 4.92787,-1.06866 6.131,-1.40742 z m -109.64934,-3.72003 8.05196,-2.02258 -0.58599,-0.94815 -0.58599,-0.94815 -9.06557,2.4314 c -4.98607,1.33728 -9.30827,2.67411 -9.60491,2.97074 -1.11578,1.11578 4.0115,0.47077 11.7905,-1.48326 z m 110.27434,-0.0392 5.3125,-0.77797 0,-1.22588 0,-1.22589 -2.8125,0.77146 c -1.54688,0.4243 -4.93434,1.12629 -7.5277,1.55998 l -4.71521,0.78852 -0.79276,1.28272 -0.79276,1.28271 3.00797,-0.83884 c 1.65437,-0.46136 5.39858,-1.18892 8.32046,-1.61681 z m -29.6875,-4.44048 5.625,-2.50586 -1.88403,-0.80841 -1.88403,-0.80841 -0.40452,-4.12769 -0.40451,-4.1277 2.00486,-3.0598 c 2.34119,-3.57311 2.30084,-3.58993 -3.21262,-1.3387 -2.31832,0.94661 -6.90216,2.10835 -10.1863,2.58164 l -5.97115,0.86052 -7.15385,-1.45833 -7.15385,-1.45833 -4.0625,-2.47525 -4.0625,-2.47526 0,1.27818 c 0,0.703 0.5625,1.62582 1.25,2.05072 l 1.25,0.77254 0,6.17623 0,6.17623 -1.32377,0 -1.32377,0 0.6786,1.098 c 1.09118,1.76557 9.07221,5.19993 14.80295,6.36994 l 5.29099,1.08023 6.25,-0.64731 6.25,-0.64731 5.625,-2.50587 z m -84.54,-0.3122 c 7.06885,-1.59153 2.16825,-2.02116 -5.96353,-0.52282 l -8.30297,1.52988 1.43255,0.88537 1.43256,0.88536 3.90819,-0.98532 c 2.14951,-0.54193 5.52145,-1.34854 7.4932,-1.79247 z m -10.83278,-3.07857 3.98572,-1.14309 0.38103,0.94832 0.38103,0.94831 4.6875,-0.56698 4.6875,-0.56699 0,-0.95699 0,-0.95699 -3.63495,-0.72699 -3.63495,-0.72699 -4.1693,1.19574 c -2.29311,0.65766 -5.71988,1.19574 -7.61505,1.19574 l -3.44575,0 0,1.25 0,1.25 2.19575,0 c 1.20767,0 3.98933,-0.51439 6.18147,-1.14309 z m 2.81479,-4.30381 6.81701,-1.59097 -1.29255,-0.79884 -1.29255,-0.79884 -6.59126,1.73874 c -3.6252,0.95631 -6.90808,2.05556 -7.2953,2.44278 l -0.70403,0.70403 1.77084,-0.053 c 0.97395,-0.0291 4.83848,-0.7689 8.58784,-1.64394 z m 88.49549,-12.22457 6.5625,-1.47636 0,-0.97731 c 0,-0.53753 -0.5625,-1.32496 -1.25,-1.74986 l -1.25,-0.77254 0,1.26086 0,1.26087 -7.53044,1.48153 -7.53045,1.48152 -0.79002,1.27828 -0.79002,1.27829 3.00797,-0.79446 c 1.65437,-0.43696 5.96108,-1.45883 9.57046,-2.27082 z m -3.125,-4.95303 c 2.57812,-0.67202 4.6875,-1.53087 4.6875,-1.90855 l 0,-0.6867 -5.25069,0.8871 c -2.88789,0.48791 -7.24726,1.66823 -9.6875,2.62294 l -4.43681,1.73584 5,-0.71438 c 2.75,-0.39292 7.10937,-1.26423 9.6875,-1.93625 z m -9.27768,-3.46805 c 2.97542,-0.65199 5.78792,-1.59127 6.25,-2.08727 l 0.84018,-0.90183 -4.81054,0.87055 -4.81055,0.87055 0.82182,-1.32973 0.82181,-1.32972 3.05123,0 3.05123,0 0,-1.10428 0,-1.10428 -3.3051,-0.63181 -3.30511,-0.63181 -3.87414,1.11109 c -2.13078,0.6111 -5.73918,1.11109 -8.01867,1.11109 l -4.14452,0 0.80437,1.3015 0.80437,1.3015 5.2069,-0.364 5.2069,-0.364 0.625,1.25 0.625,1.25 -3.45869,0.39757 -3.4587,0.39758 0.75139,1.21577 0.75139,1.21577 2.08231,-0.62939 c 1.14526,-0.34617 4.51673,-1.16285 7.49212,-1.81485 z m -6.18174,-7.86024 6.29381,-1.45278 -0.57382,-0.92845 -0.57382,-0.92846 -7.18712,1.87111 c -11.53777,3.00375 -9.86074,4.18583 2.04095,1.43858 z m 114.14061,107.07779 0.0462,-3.75 0.57623,2.21129 c 0.31693,1.21621 0.29609,2.90371 -0.0464,3.75 l -0.62256,1.53871 0.0464,-3.75 z m 1.25,-28.75 0.0462,-3.75 0.57623,2.21129 c 0.31693,1.21621 0.29609,2.90371 -0.0464,3.75 l -0.62244,1.53871 0.0464,-3.75 z"
         id="path4153"
         inkscape:connector-curvature="0" />
      <path
         style="fill:#184279"
         d="m 368.83485,558.82833 c -12.08281,-10.0876 -33.87483,-28.16582 -48.42671,-40.17382 l -26.45797,-21.83273 10.30171,-4.13862 c 5.66594,-2.27625 12.81746,-5.30187 15.89226,-6.72362 l 5.59055,-2.58498 1.76258,-2.51643 1.76257,-2.51643 5.14687,-2.33728 5.14688,-2.33728 5.7945,-0.0275 5.7945,-0.0274 21.66135,-8.76489 21.66135,-8.76489 3.79415,-3.62159 3.79415,-3.62158 4.84015,-1.98853 4.84016,-1.98852 5.41353,0 5.41352,0 3.14312,-1.43209 3.1431,-1.4321 9.10321,6.9791 c 5.00676,3.83851 20.91571,16.32147 35.35321,27.73992 14.4375,11.41845 32.8166,25.92076 40.84246,32.22736 l 14.59245,11.46654 -24.59245,10.20121 c -13.52586,5.61066 -44.24044,18.42469 -68.25462,28.47563 -24.01419,10.05094 -43.98294,18.23104 -44.375,18.17802 -0.39206,-0.053 -10.59877,-8.3499 -22.68158,-18.4375 z m 45.89906,-0.23054 c 2.73024,-0.818 6.33784,-2.5515 8.01688,-3.85222 l 3.0528,-2.36493 -1.70056,-1.1058 -1.70058,-1.1058 0.55045,-5.4659 c 0.30275,-3.00625 1.00526,-6.49641 1.56115,-7.75593 l 1.0107,-2.29003 -6.15575,3.21875 -6.15576,3.21876 -7.5412,0.78821 -7.54119,0.78821 -7.018,-2.04019 -7.01801,-2.04019 -3.79334,-3.19189 -3.79335,-3.19189 0.78565,8.41329 0.78564,8.41329 -2.10435,-0.80751 -2.10435,-0.80752 1.27638,2.38494 c 0.70201,1.31172 3.0518,3.64915 5.22175,5.19429 l 3.94536,2.80935 6.36968,1.6184 6.36968,1.61838 6.35812,-0.4794 c 3.49697,-0.26367 8.59196,-1.14867 11.3222,-1.96667 z m -3.50515,-21.16131 c 5.04634,-1.3106 9.40917,-2.61691 9.69517,-2.90291 0.28599,-0.28599 -0.70384,-1.59467 -2.19963,-2.90816 l -2.71962,-2.38817 0.77026,2.11592 0.77025,2.11592 -7.66441,1.7024 -7.6644,1.7024 -0.49806,1.49418 c -0.61115,1.83344 -1.45379,1.91598 9.51044,-0.93158 z m -5.05707,-4.63587 c 4.61005,-1.1339 8.60268,-2.2453 8.87253,-2.46979 0.72961,-0.60698 -2.49683,-4.21858 -3.76869,-4.21858 l -1.09694,0 0.3125,1.5625 0.3125,1.5625 -3.75,0 -3.75,0 -1.71831,1.62902 -1.7183,1.62902 -2.39371,-0.37902 -2.39371,-0.37902 -0.0138,-1.23576 -0.0138,-1.23577 6.00077,-1.27307 6.00078,-1.27306 -0.125,-1.55367 c -0.0687,-0.85452 -0.20938,-2.11617 -0.3125,-2.80367 l -0.1875,-1.25 -2.35421,0 -2.35421,0 -0.69423,-2.65473 -0.69423,-2.65472 -3.51406,0.84898 c -1.93273,0.46694 -5.64041,1.40657 -8.23928,2.08806 l -4.72521,1.23908 0.73648,1.19167 0.73649,1.19166 -1.32377,0 c -0.72807,0 -1.32377,0.50096 -1.32377,1.11324 l 0,1.11324 4.3759,0.51087 4.37589,0.51086 1.14019,-1.14019 1.14019,-1.14019 1.3793,0.85246 1.37931,0.85246 -0.71916,1.16362 -0.71916,1.16363 -3.05123,0 -3.05123,0 0,1.25 0,1.25 1.57432,0 1.57431,0 1.56128,2.5 c 1.88646,3.02071 2.01588,3.02523 12.53319,0.43837 z m -5.9931,-7.88126 c 1.03125,-0.69786 2.95312,-1.27744 4.27083,-1.28797 3.19806,-0.0256 2.20033,0.6899 -2.39583,1.71799 l -3.75,0.83881 1.875,-1.26883 z m -8.125,-4.43864 c 3.4375,-1.00114 6.8125,-1.81399 7.5,-1.80635 l 1.25,0.0139 -1.875,1.07124 c -1.03125,0.58918 -4.40625,1.40204 -7.5,1.80635 l -5.625,0.73511 6.25,-1.82025 z m 97.20677,7.02347 5.69484,-2.75681 0.67304,-1.75391 0.67302,-1.7539 -1.74843,0.67094 -1.74844,0.67094 0.44081,-2.9221 c 0.24244,-1.60716 0.79158,-5.36458 1.2203,-8.34983 l 0.77949,-5.42774 -0.9707,0.49154 c -0.53389,0.27034 -3.73194,1.7943 -7.10678,3.38656 l -6.13606,2.89503 -10.11394,-0.55151 -10.11392,-0.55151 -4.12897,-2.1613 c -2.27094,-1.18871 -5.18834,-3.22066 -6.48312,-4.51543 l -2.35415,-2.35414 0.72955,8.70196 0.72954,8.70196 -2.1827,-0.83758 -2.1827,-0.83758 1.58352,2.53563 c 1.93221,3.09393 7.36345,6.4009 14.18369,8.63612 l 5.10534,1.67318 8.88098,-0.41684 8.88097,-0.41686 5.69483,-2.75682 z m -122.08232,-12.75824 6.0133,-3.0087 0.53079,-1.7365 0.53079,-1.73649 -1.41217,0.87277 -1.41216,0.87276 0,-5.78095 0,-5.78094 1.29398,-2.41783 c 1.63466,-3.0544 1.55286,-3.04563 -6.48236,0.69497 l -6.68662,3.11279 -9.10265,0.0122 -9.10265,0.0122 -4.64735,-1.94131 -4.64735,-1.94131 -3.54736,-3.37119 -3.54736,-3.37119 0.8831,6.25 c 0.96864,6.85543 0.94523,6.54438 0.73465,9.76127 l -0.14803,2.26127 -1.25,-0.77254 -1.25,-0.77254 0,1.10588 c 0,2.79622 8.77485,8.66709 15.625,10.454 l 3.75,0.97821 8.93057,-0.37408 8.93058,-0.37407 6.0133,-3.0087 z m 116.18115,-6.91067 8.0694,-2.02696 0,-0.87262 c 0,-0.82083 -2.59653,-3.2528 -8.0859,-7.57345 l -2.38218,-1.875 0.8198,2.1875 0.81982,2.1875 -2.77327,0.19039 c -5.19556,0.35669 -5.72202,0.46669 -6.64338,1.38805 -0.50685,0.50686 -2.5153,0.92156 -4.46323,0.92156 l -3.54166,0 0,-1.25 0,-1.25 1.5625,-0.007 c 0.85937,-0.004 3.67187,-0.59277 6.25,-1.30876 l 4.6875,-1.30175 0,-2.44125 0,-2.44124 -2.5,0 -2.5,0 -0.0191,-0.9375 c -0.01,-0.51563 -0.49285,-1.68471 -1.07181,-2.59796 l -1.05269,-1.66046 -7.67818,1.51059 -7.67819,1.51059 0,1.08737 c 0,1.40552 1.05272,1.37136 8.77472,-0.28471 3.51879,-0.75464 6.67642,-1.09345 7.01697,-0.7529 0.34055,0.34056 -3.33426,1.32571 -8.16627,2.18924 l -8.78544,1.57004 0.7278,1.17762 0.72781,1.17761 5.36637,-0.80473 5.36637,-0.80474 0.80961,1.30997 0.8096,1.30997 -2.26126,0.19039 c -1.2437,0.10471 -2.82378,0.32108 -3.51128,0.48082 -0.6875,0.15973 -1.69145,0.3553 -2.231,0.4346 -0.53954,0.0793 0.87418,1.77304 3.14159,3.76386 l 4.12259,3.61968 9.27151,-2.30402 9.27152,-2.30401 1.02439,0.63311 c 0.56343,0.34821 1.0244,1.08923 1.0244,1.64671 l 0,1.0136 -7.5,1.47553 -7.5,1.47554 0,1.18709 c 0,1.61497 1.32159,1.51104 10.6806,-0.83987 z m -12.2431,-12.55088 1.5625,-0.63048 1.5625,0.63048 1.5625,0.63048 -3.125,0 -3.125,0 1.5625,-0.63048 z m -110.49293,0.10599 c 4.22424,-1.08453 8.08826,-2.36424 8.58673,-2.84381 l 0.9063,-0.87193 -2.4688,-1.54179 -2.4688,-1.5418 0,1.71479 0,1.71479 -7.5,1.59161 -7.5,1.59161 0,1.07919 c 0,1.50644 1.64899,1.3655 10.44457,-0.89266 z m 3.0694,-7.37544 0.78863,-0.78863 -1.8388,-1.1629 c -1.01134,-0.63959 -2.29387,-1.1715 -2.85007,-1.18203 l -1.01127,-0.0191 0.69013,1.11666 0.69013,1.11666 -3.17385,0.79658 -3.17384,0.79659 -1.19252,-0.73702 -1.19251,-0.73701 0,1.32377 0,1.32377 -4.375,0 -4.375,0 0,-1.10807 0,-1.10807 5.3125,-0.80341 c 2.92187,-0.44187 6.03468,-1.25383 6.91734,-1.80436 l 1.60483,-1.00096 -0.7538,-1.96439 -0.75381,-1.96439 -2.41353,-0.63115 -2.41353,-0.63115 0,-1.99203 0,-1.99202 -1.15464,0 c -2.96988,0 -14.60789,3.05118 -15.72036,4.12147 l -1.25,1.2026 5.625,-0.7701 c 3.09375,-0.42356 7.03125,-1.0494 8.75,-1.39077 l 3.125,-0.62067 -5,1.75767 c -2.75,0.96672 -6.86132,1.8009 -9.13627,1.85373 l -4.13627,0.0961 0.77254,1.25 0.77254,1.25 3.125,0 3.125,0 -0.84644,1.36957 -0.84644,1.36956 3.85139,3.5177 3.85138,3.51769 8.90896,-2.2916 c 4.89992,-1.26038 9.26383,-2.64648 9.69758,-3.08022 z m -23.51397,-3.7777 0,-1.875 2.5,0 2.5,0 0,1.11626 c 0,0.61395 -0.88976,1.4577 -1.97723,1.875 -2.79384,1.0721 -3.02277,0.98756 -3.02277,-1.11626 z m 8.46056,-0.83556 1.32069,-1.32069 1.63964,0.54655 1.63963,0.54654 -2.96032,0.77414 -2.96033,0.77415 1.32069,-1.32069 z m 83.79209,4.54321 6.4564,-1.91734 3.45797,-3.19251 3.45798,-3.19251 -2.30349,0.74014 -2.3035,0.74013 0.5112,-6.56778 c 0.28115,-3.61228 0.99123,-7.69278 1.57795,-9.06778 l 1.06675,-2.5 -2.46151,2.15459 c -1.35384,1.18502 -4.89494,3.01315 -7.86911,4.0625 l -5.4076,1.90791 -8.28035,-0.0122 -8.28034,-0.0122 -6.40933,-2.98432 c -3.52513,-1.64137 -6.7927,-3.60463 -7.26127,-4.36279 -0.46857,-0.75816 -1.36732,-1.37847 -1.99723,-1.37847 l -1.14529,0 1.21906,3.20637 1.21906,3.20638 0,4.87939 0,4.8794 -2.02042,-0.77531 -2.02042,-0.77531 1.43248,2.6766 1.43247,2.6766 4.02544,2.19668 c 5.70666,3.11411 13.09736,5.06382 19.73607,5.20648 l 5.71063,0.12272 6.4564,-1.91735 z m -1.15599,-21.34328 c 4.89684,-1.10584 8.90333,-2.37147 8.9033,-2.8125 -2e-5,-0.44103 -1.97777,-2.37991 -4.39502,-4.30863 l -4.39498,-3.50677 -2.03467,2.03467 -2.03468,2.03468 -2.84186,-0.71326 -2.84185,-0.71326 -0.41595,1.1286 -0.41595,1.1286 -3.00881,0.43175 -3.00881,0.43175 -0.46101,-1.34696 -0.46101,-1.34696 5.9601,-1.15304 5.96012,-1.15304 0.41316,-2.18386 0.41317,-2.18386 -3.49971,-1.33058 -3.4997,-1.33059 -5.26978,1.32695 c -2.89837,0.72981 -6.28631,1.27729 -7.52875,1.21661 l -2.25897,-0.11033 7.8125,-1.85107 7.8125,-1.85107 0,-1.29911 0,-1.29911 -3.27083,0.82093 c -1.79896,0.4515 -5.03333,1.1445 -7.1875,1.53998 l -3.91667,0.71905 -1.5625,1.95944 c -0.85938,1.07769 -1.5625,2.35059 -1.5625,2.82866 l 0,0.86921 3.80503,0.55846 3.80504,0.55846 0.64374,-1.04158 c 0.35405,-0.57288 1.50116,-1.04159 2.54913,-1.04159 l 1.90539,0 -0.51979,1.5625 -0.51978,1.5625 -3.35109,0.625 -3.35109,0.625 4.22307,3.35623 4.22308,3.35624 9.19108,-2.36417 9.19109,-2.36417 0.93563,1.50793 0.93561,1.50794 -8.08308,1.7366 -8.08306,1.7366 0,1.0759 c 0,1.45521 0.81933,1.38619 11.09666,-0.93473 z m -12.34666,-11.68226 c 1.03125,-0.69786 2.95312,-1.27744 4.27084,-1.28797 3.19805,-0.0255 2.20032,0.6899 -2.39584,1.71798 l -3.75,0.83882 1.875,-1.26883 z"
         id="path4151"
         inkscape:connector-curvature="0" />
      <path
         style="fill:#123a6e"
         d="m 369.354,558.27674 c -11.79727,-9.78422 -33.35705,-27.61939 -47.91061,-39.63371 l -26.46104,-21.8442 2.28562,-0.91322 c 1.25709,-0.50227 7.91062,-3.23941 14.78562,-6.08254 l 12.5,-5.16933 1.875,-2.12727 c 1.03125,-1.17 2.95268,-2.94672 4.26984,-3.94825 l 2.39484,-1.82098 -0.82344,3.30718 -0.82345,3.30717 1.8661,0.7161 1.86611,0.71609 2.1875,-0.70369 2.1875,-0.70368 -1.875,1.34613 -1.875,1.34614 4.375,3.76885 c 2.40625,2.07286 4.65625,3.76138 5,3.75225 0.34375,-0.009 4,-0.83152 8.125,-1.82754 4.125,-0.99602 8.23632,-1.83098 9.13627,-1.85547 l 1.63627,-0.0445 -0.64171,1.03832 c -0.35295,0.57107 -3.76115,1.73641 -7.57378,2.58964 l -6.93205,1.55133 0,1.16035 0,1.16036 2.8125,-0.0195 c 3.66577,-0.0254 17.05585,-3.18216 18.15334,-4.27965 l 0.85059,-0.85059 -4.97071,-4.25318 c -2.7339,-2.33925 -5.45278,-4.2743 -6.04196,-4.30012 l -1.07123,-0.0469 0.7195,1.875 0.71951,1.875 -3.94968,0 -3.94968,0 2.24983,-1.64512 2.24984,-1.64512 -0.46119,-2.41738 -0.4612,-2.41738 -2.79973,-0.39944 -2.79973,-0.39944 0,-1.95796 0,-1.95797 -5.3125,0.77797 c -2.92188,0.42789 -6.71875,1.10554 -8.4375,1.50591 l -3.125,0.72794 2.0223,-1.30567 2.02231,-1.30567 7.35269,-0.76169 7.3527,-0.76168 20.625,-8.22247 20.625,-8.22247 4.6911,-4.17118 c 2.58011,-2.29415 4.97073,-4.17118 5.3125,-4.17118 1.03017,0 0.0868,3.05721 -1.2536,4.0625 l -1.25,0.9375 1.875,1.26625 1.875,1.26626 2.02904,-0.48279 2.02903,-0.48279 -0.61232,2.34153 -0.61233,2.34154 1.50792,0 1.50793,0 2.1985,2.71503 2.1985,2.71503 8.62687,-2.0933 c 4.74477,-1.15131 9.36318,-2.09183 10.26313,-2.09003 l 1.63627,0.003 -0.64172,1.03832 c -0.35293,0.57108 -3.76113,1.73642 -7.57377,2.58965 l -6.93205,1.55134 0,1.62502 0,1.62503 9.43754,-2.19388 c 5.19065,-1.20663 9.82202,-2.57836 10.29196,-3.04829 l 0.85441,-0.85442 -4.9658,-4.29137 c -2.73119,-2.36026 -5.45399,-4.29138 -6.05069,-4.29138 l -1.0849,0 0.71952,1.875 0.7195,1.875 -2.77327,0.14419 c -3.71132,0.19295 -4.88983,0.44747 -7.38776,1.59547 l -2.11447,0.97177 -2.26052,-0.51549 -2.26052,-0.51549 5.625,-1.52694 c 3.09375,-0.83982 6.28446,-1.74601 7.09047,-2.01376 l 1.46547,-0.48682 -0.65539,-2.50623 -0.65539,-2.50622 -2.68509,-0.38274 -2.68507,-0.38274 -0.0168,-1.875 -0.0168,-1.875 -3.1083,0.0693 c -1.70947,0.0381 -5.3582,0.51012 -8.1082,1.04897 l -5,0.97974 0.94463,-0.95194 c 0.77589,-0.7819 8.73856,-2.40676 22.38174,-4.56722 l 2.07638,-0.3288 13.45016,10.625 c 7.39758,5.84375 20.80696,16.40854 29.79861,23.4773 8.99167,7.06877 19.44223,15.32654 23.22348,18.3506 3.78125,3.02406 12.38036,9.82875 19.10914,15.12153 l 12.23412,9.62324 -12.85912,5.28361 c -7.07253,2.90598 -31.98414,13.30902 -55.35914,23.11786 -55.86494,23.44257 -65.88982,27.53037 -67.44773,27.50286 -0.71625,-0.0126 -10.95458,-8.02828 -22.75186,-17.8125 z m 43.94959,1.45577 5,-1.36577 4.04571,-3.05306 c 2.22514,-1.67918 4.68463,-4.29582 5.46551,-5.81475 l 1.41979,-2.76169 -1.653,1.5625 c -0.90916,0.85937 -2.10301,1.5625 -2.65301,1.5625 l -1,0 0,-4.91862 0,-4.91863 1.28498,-3.37974 1.28497,-3.37973 -0.72794,-0.72794 -0.72795,-0.72794 -0.97245,1.57347 -0.97246,1.57347 -5.52151,-5.04717 c -5.90659,-5.39915 -7.39764,-6.06548 -7.39764,-3.30591 l 0,1.74127 -1.9878,0.76279 -1.98781,0.76279 -1.0071,-0.62242 -1.0071,-0.62242 -3.47797,1.80439 -3.47797,1.80439 -1.16058,-0.71727 -1.16058,-0.71728 1.67039,-1.03236 c 0.91871,-0.56779 3.79126,-1.39067 6.38345,-1.82862 l 4.71307,-0.79627 0,-3.01512 0,-3.01513 -1.5625,-0.14803 c -0.85938,-0.0814 -2.03281,-0.0653 -2.60764,0.0359 l -1.04514,0.18391 -0.66315,-2.53588 -0.66315,-2.53588 -1.66768,0 c -0.91723,0 -4.5137,0.61036 -7.99215,1.35635 l -6.32447,1.35636 -1.29487,2.41948 -1.29486,2.41948 0.75658,1.22416 0.75657,1.22417 2.42623,0 2.42623,0 -0.3125,0.9622 c -0.17188,0.5292 1.22556,2.62333 3.10542,4.6536 l 3.41791,3.69142 9.70709,-2.01617 9.70708,-2.01617 1.09384,1.0189 1.09383,1.0189 -7.68677,1.51228 -7.68678,1.51228 -0.71973,1.16454 -0.71973,1.16455 0.66207,0.66206 0.66206,0.66207 8.99565,-2.04601 c 10.30176,-2.34309 12.33292,-1.92713 4.97189,1.01817 l -5.0624,2.02557 -7.17696,0.15065 -7.17697,0.15065 -5.5495,-1.50674 -5.54949,-1.50674 -4.26301,-4.26301 c -2.34465,-2.34465 -4.45527,-4.263 -4.69027,-4.263 -0.235,0 -0.096,3.95161 0.30892,8.78135 l 0.7362,8.78134 -2.05893,-0.79008 -2.05892,-0.79008 0,1.32356 c 0,0.72796 1.9716,3.23836 4.38133,5.57866 l 4.38134,4.2551 5.93116,1.97795 5.93117,1.97794 7.5,0.0701 7.5,0.0701 5,-1.36579 z m -21.875,-33.48653 c 0,-0.61395 0.82574,-1.43313 1.83497,-1.82041 l 1.83497,-0.70415 0.65785,1.06443 0.65785,1.06443 -1.97005,0.75598 c -2.62033,1.00551 -3.01559,0.95829 -3.01559,-0.36028 z m 97.6437,1.95971 c 5.21604,-2.56041 9.8563,-6.58341 9.8563,-8.5452 l 0,-1.35436 -2.07967,1.71555 -2.07968,1.71556 0.79744,-10 0.79743,-10 -1.20538,2.05441 -1.2054,2.0544 -5.32432,-4.8669 -5.32431,-4.86691 -1.69679,0 -1.6968,0 0.71952,1.875 0.7195,1.875 -4.262,0 -4.262,0 -0.77254,1.25 -0.77254,1.25 -2.42624,0 -2.42622,0 0,-1.09024 0,-1.09024 4.6875,-0.78398 c 2.57812,-0.43119 5.36947,-1.22633 6.203,-1.76698 l 1.5155,-0.98301 -0.72379,-2.76777 -0.72378,-2.76778 -2.35422,0 -2.35421,0 0,-1.875 0,-1.875 -3.19647,0 c -1.75807,0 -5.71399,0.63392 -8.79097,1.40871 l -5.59447,1.4087 -1.22494,2.28881 -1.22494,2.28881 2.2034,1.13358 2.20339,1.13357 1.7365,-0.61825 1.73649,-0.61826 -0.95844,1.55079 -0.95845,1.5508 4.22195,3.60844 c 2.32207,1.98464 4.5032,3.60011 4.84695,3.58994 0.34375,-0.0101 4.73395,-1.08568 9.75599,-2.39004 l 9.131,-2.37155 -0.46509,1.39524 -0.46508,1.39525 -5.69982,1.45404 c -3.13491,0.79972 -6.34061,1.85006 -7.1238,2.3341 l -1.42398,0.88007 0.68542,1.10903 0.68542,1.10903 1.52248,-0.54659 c 0.83735,-0.30063 5.04085,-1.35182 9.3411,-2.33598 l 7.81865,-1.78939 -0.69477,1.12415 c -0.38212,0.61829 -3.84096,2.03878 -7.68631,3.15665 l -6.99155,2.0325 -7.63232,-0.84929 -7.63234,-0.84929 -5.22956,-3.04587 -5.22957,-3.04588 -0.79217,-2.49591 -0.79218,-2.49591 -1.17448,0 -1.17449,0 0.83275,8.96011 0.83275,8.96011 -2.07403,-0.79588 -2.07402,-0.79588 0,1.60191 0,1.6019 3.4375,3.20613 c 3.70545,3.45605 7.66945,5.7538 12.7395,7.3845 l 3.198,1.02859 10.625,-0.29498 10.625,-0.29496 4.5187,-2.2181 z m -26.3937,-32.09345 0,-1.25 1.80122,0 c 0.99068,0 2.14888,0.5625 2.57378,1.25 l 0.77254,1.25 -2.57377,0 -2.57377,0 0,-1.25 z m -96.57028,20.03715 5.30472,-2.40795 3.26536,-3.26536 3.26535,-3.26536 -0.72737,-0.72736 -0.72737,-0.72737 -2.07681,1.7236 -2.07682,1.72361 0.62283,-7.48298 c 0.34256,-4.11564 1.09435,-8.60798 1.67065,-9.98298 l 1.04781,-2.5 -3.96024,3.32416 -3.96024,3.32415 -6.46181,2.14627 -6.4618,2.14627 -7.30913,-0.66277 -7.30913,-0.66277 -5.74243,-2.77986 -5.74242,-2.77986 -1.33322,-2.9261 -1.33322,-2.9261 -0.92444,0.57133 -0.92443,0.57134 0.66852,8.32838 0.66852,8.32838 -1.4363,-0.88768 -1.4363,-0.88768 0,1.67064 c 0,0.91885 0.9178,2.98098 2.03956,4.58251 l 2.03956,2.91189 6.39794,2.97904 6.39794,2.97904 10.625,-0.0152 10.625,-0.0152 5.30472,-2.40795 z m 72.71702,-30.09573 5.4778,-3.06642 1.96953,-3.0073 1.96954,-3.0073 -2.9476,1.57751 -2.9476,1.57751 0.68665,-6.69521 c 0.37765,-3.68237 1.095,-8.10146 1.5941,-9.82021 l 0.90745,-3.125 -3.6158,3.20169 c -4.75335,4.20894 -8.63879,5.76202 -17.04174,6.8119 l -6.93283,0.8662 -7.28069,-2.11655 -7.28068,-2.11655 -4.09319,-4.34004 -4.09318,-4.34005 0.82042,9.7667 0.82043,9.7667 -2.07967,-1.71556 -2.07968,-1.71555 0,1.79419 0,1.79419 3.4375,3.20613 c 3.69378,3.44516 7.63996,5.7366 12.7395,7.39747 l 3.198,1.04156 10.64697,-0.33479 10.64697,-0.3348 5.4778,-3.06642 z m -94.36398,2.70783 c 0.37416,-0.60541 2.09486,-1.37116 3.82377,-1.70166 l 3.14347,-0.60091 0,0.94292 c 0,1.11185 -3.17955,2.4604 -5.80101,2.4604 l -1.84653,0 0.6803,-1.10075 z m -3.28276,-5.39925 1.5,-1.5 1.5,1.5 1.5,1.5 -3,0 -3,0 1.5,-1.5 z m 70.8876,-28.52039 0.78515,-1.27039 1.16362,0.71916 c 1.73381,1.07155 1.41052,1.82162 -0.78514,1.82162 l -1.94877,0 0.78514,-1.27039 z"
         id="path4149"
         inkscape:connector-curvature="0" />
    </g>
  </g>
</svg>
